<?xml version="1.0" encoding="utf-8"?>
<!-- Generator: Adobe Illustrator 25.2.1, SVG Export Plug-In . SVG Version: 6.00 Build 0)  -->
<svg version="1.1" id="Layer_1" xmlns="http://www.w3.org/2000/svg" xmlns:xlink="http://www.w3.org/1999/xlink" x="0px" y="0px"
	 viewBox="0 0 162.73 161.93" style="enable-background:new 0 0 162.73 161.93;" xml:space="preserve">
<style type="text/css">
	.st0{fill:#CDE2EB;stroke:#0081A6;stroke-width:4;stroke-miterlimit:10;}
	.st1{fill:#0081A6;}
</style>
<circle class="st0" cx="81.36" cy="80.97" r="78.45"/>
<g>
	<path class="st1" d="M81.54,34.05c0.27,0.19,0.52,0.4,0.8,0.57c10.02,5.89,20.04,11.78,30.06,17.67c0.29,0.17,0.57,0.35,0.91,0.55
		c-0.18,0.21-0.33,0.41-0.49,0.57c-2.61,2.62-5.21,5.23-7.85,7.83c-0.25,0.25-0.67,0.46-1.01,0.47c-4.79,0.03-9.59,0.02-14.38,0.02
		c-0.12,0-0.24-0.03-0.39-0.05c1.05-4,0.08-7.34-3.4-9.62c-2.96-1.94-6.14-1.87-9.03,0.14c-3.3,2.3-4.23,5.58-3.16,9.48
		c-0.17,0.02-0.31,0.05-0.45,0.05c-4.76,0-9.53,0.01-14.29-0.01c-0.33,0-0.74-0.13-0.96-0.35c-2.74-2.7-5.45-5.43-8.17-8.15
		c-0.1-0.1-0.18-0.23-0.3-0.4c1.33-0.78,2.61-1.54,3.9-2.29c9.02-5.3,18.04-10.6,27.06-15.91c0.28-0.17,0.53-0.38,0.8-0.57
		C81.29,34.05,81.41,34.05,81.54,34.05z"/>
	<path class="st1" d="M84.1,127.89c0-6.03,0-12.07,0-18.18c2.99,3,5.91,5.92,8.93,8.95c0.26-0.47,0.43-0.74,0.57-1.02
		c1.88-3.76,3.75-7.53,5.66-11.28c0.14-0.28,0.54-0.62,0.82-0.62c4.67-0.03,9.34-0.02,14.01-0.01c0.06,0,0.12,0.03,0.19,0.05
		c1.67,3.99,2.64,8.16,2.78,12.5c0.1,3.2,0.03,6.41,0.04,9.61C106.1,127.89,95.1,127.89,84.1,127.89z"/>
	<path class="st1" d="M45.61,127.89c0.06-3.87-0.01-7.75,0.2-11.62c0.2-3.64,1.19-7.14,2.64-10.56c1.63,0,3.28,0,4.92,0
		c3.02,0,6.04,0.02,9.06-0.01c0.58-0.01,0.86,0.19,1.11,0.69c1.83,3.72,3.69,7.42,5.54,11.13c0.16,0.32,0.34,0.63,0.54,1.01
		c2.96-2.96,5.86-5.87,8.97-8.98c0,6.3,0,12.32,0,18.34C67.61,127.89,56.61,127.89,45.61,127.89z"/>
	<path class="st1" d="M100.6,67.3c0,0.27,0,0.54,0,0.8c0,4.21,0.02,8.43,0,12.64c-0.05,8.5-5.01,15.5-13.01,18.39
		c-8.74,3.16-19.15-1.03-23.31-9.35c-1.39-2.78-2.15-5.7-2.16-8.8c-0.02-4.4-0.01-8.79-0.01-13.19c0-0.15,0.01-0.3,0.02-0.49
		c0.96-0.2,1.7-0.08,2.45,0.69c3.16,3.27,6.4,6.47,9.63,9.67c0.3,0.3,0.83,0.53,1.25,0.53c3.94,0.04,7.88,0.04,11.82,0
		c0.42,0,0.95-0.23,1.25-0.53c3.24-3.19,6.47-6.4,9.64-9.66C98.88,67.27,99.6,67.09,100.6,67.3z"/>
	<path class="st1" d="M62.11,100.17c-5.56,0-10.98,0-16.45,0c0-3.63,0-7.23,0-10.9c0.25-0.02,0.51-0.05,0.78-0.05
		c3.63,0,7.27,0.02,10.9-0.02c0.68-0.01,0.9,0.28,1.18,0.82c0.93,1.81,1.9,3.61,2.96,5.34c0.4,0.65,0.7,1.23,0.65,2.01
		C62.07,98.28,62.11,99.19,62.11,100.17z"/>
	<path class="st1" d="M117.06,89.22c0,3.71,0,7.3,0,10.94c-5.48,0-10.92,0-16.46,0c0-1.2-0.02-2.38,0.02-3.56
		c0.01-0.24,0.2-0.49,0.33-0.72c1.13-2.01,2.25-4.03,3.41-6.03c0.15-0.26,0.48-0.6,0.73-0.61C109.05,89.2,113.01,89.22,117.06,89.22
		z"/>
	<path class="st1" d="M71.62,67.27c6.55,0,12.94,0,19.53,0c-0.71,0.71-1.32,1.32-1.93,1.93c-1.01,1.01-2.01,2.05-3.06,3.03
		c-0.28,0.26-0.73,0.45-1.1,0.45c-2.47,0.04-4.95,0.03-7.42,0.01c-0.26,0-0.6-0.02-0.76-0.17C75.15,70.83,73.44,69.1,71.62,67.27z"
		/>
	<path class="st1" d="M87.52,104.89c1.23-0.44,2.56-0.85,3.83-1.41c1.25-0.55,2.43-1.25,3.74-1.93c-0.03,0.34,0.04,0.69-0.09,0.95
		c-1.09,2.23-2.21,4.45-3.29,6.62C90.29,107.68,88.91,106.29,87.52,104.89z"/>
	<path class="st1" d="M67.41,101.59c2.76,1.21,5.31,2.34,7.65,3.37c-1.22,1.23-2.63,2.64-4.05,4.07
		C69.9,106.68,68.48,104.25,67.41,101.59z"/>
	<path class="st1" d="M84.11,58.99c-0.02,1.5-1.28,2.74-2.77,2.71c-1.49-0.03-2.73-1.31-2.71-2.79c0.03-1.5,1.28-2.71,2.79-2.69
		C82.94,56.24,84.13,57.46,84.11,58.99z"/>
</g>
</svg>
