<?xml version="1.0" encoding="utf-8"?>
<!-- Generator: Adobe Illustrator 25.2.1, SVG Export Plug-In . SVG Version: 6.00 Build 0)  -->
<svg version="1.1" id="Layer_1" xmlns="http://www.w3.org/2000/svg" xmlns:xlink="http://www.w3.org/1999/xlink" x="0px" y="0px"
	 viewBox="0 0 162.73 161.93" style="enable-background:new 0 0 162.73 161.93;" xml:space="preserve">
<style type="text/css">
	.st0{fill:#CDE2EB;stroke:#0081A6;stroke-width:4;stroke-miterlimit:10;}
	.st1{fill:#0081A6;stroke:#0081A6;stroke-miterlimit:10;}
</style>
<circle class="st0" cx="81.43" cy="80.83" r="78.45"/>
<g>
	<g>
		<path class="st1" d="M100.49,73.17c0.29,2.66,2.44,4.96,4.62,6.33c1.81,1.13,4.98,2.4,5.8-0.48c1.37-4.8-5-10.07-9.45-8.46
			c-0.59,0.21-0.27,1.12,0.27,1.15c3.42,0.21,7.17,1.68,7.69,5.58c0.13,0.96,0.11,0.91-0.93,1.35c-0.99,0.42-0.9,0.46-1.68,0.1
			c-0.8-0.37-1.56-0.84-2.23-1.42c-1.46-1.25-2.26-2.83-3.25-4.42C101.09,72.52,100.43,72.68,100.49,73.17L100.49,73.17z"/>
	</g>
	<g>
		<path class="st1" d="M109.22,80.4c-9.33,9.46-20.43,16.85-30.21,25.85c-10.63,9.78-20.88,20.14-32.91,28.24
			c-0.55,0.37,0.11,1.25,0.67,0.88c11.06-7.4,20.69-16.5,30.45-25.49c6.21-5.72,12.52-11.26,19.2-16.43
			c4.76-3.68,10.07-7.44,13.43-12.53C110.07,80.57,109.54,80.08,109.22,80.4L109.22,80.4z"/>
	</g>
	<g>
		<path class="st1" d="M42.99,123.95c-3,2.13-4.14,6.1-1.76,9.17c2.07,2.68,5.93,2.96,8.13,0.33c0.55-0.65-0.38-1.54-1.01-0.97
			c-2.2,1.97-5.59,0.9-6.45-1.81c-0.68-2.15,0.27-4.41,1.78-5.96C44.05,124.32,43.43,123.64,42.99,123.95L42.99,123.95z"/>
	</g>
	<g>
		<path class="st1" d="M60.72,110.2c-1.47,2.16-1.59,4.93-0.3,7.21c0.89,1.59,3.66,4.11,5.28,2.03c0.36-0.46-0.24-1.04-0.72-0.88
			c-1.93,0.63-3.49-1.4-4.02-3.04c-0.53-1.65-0.39-3.37,0.47-4.88C61.69,110.21,61.02,109.76,60.72,110.2L60.72,110.2z"/>
	</g>
	<g>
		<path class="st1" d="M63.65,107.01c-1.12,2.5-2.06,5.23-0.58,7.8c1.07,1.86,3.25,3.39,5.46,3.1c0.5-0.07,0.58-0.82,0.05-0.93
			c-1.89-0.38-3.68-1.05-4.62-2.86c-1.1-2.12-0.33-4.57,0.45-6.66C64.58,106.99,63.88,106.48,63.65,107.01L63.65,107.01z"/>
	</g>
	<g>
		<path class="st1" d="M98.93,75.17c-1.06,0.63-0.45,2.66,0.81,2.51c0.46-0.05,0.59-0.69,0.15-0.9c-0.31-0.15-0.47-0.53-0.26-0.84
			C99.95,75.48,99.42,74.87,98.93,75.17L98.93,75.17z"/>
	</g>
	<g>
		<path class="st1" d="M100.28,77.52c-0.12,0.48-0.15,1.56,0.57,1.59c0.67,0.03,0.66-1,0.55-1.46
			C101.28,77.16,100.44,76.89,100.28,77.52L100.28,77.52z"/>
	</g>
	<g>
		<path class="st1" d="M102.27,78.86c-0.34,0.48-0.48,1.1-0.34,1.68c0.07,0.29,0.33,0.52,0.64,0.51c0.27-0.01,0.55-0.23,0.54-0.53
			c-0.02-0.39,0.01-0.72,0.17-1.08C103.53,78.86,102.64,78.35,102.27,78.86L102.27,78.86z"/>
	</g>
	<g>
		<path class="st1" d="M103.19,80.52c-0.39,0.13-0.64,0.43-0.63,0.86c0.01,0.38,0.32,0.79,0.72,0.82c0.42,0.03,0.75-0.38,0.54-0.78
			c-0.05-0.09,0.01-0.01-0.01,0.03c-0.07,0.17,0.42,0.17-0.27,0.34c0.34-0.08,0.54-0.42,0.44-0.76
			C103.9,80.72,103.52,80.4,103.19,80.52L103.19,80.52z"/>
	</g>
	<g>
		<path class="st1" d="M105.4,82.66c0.19-0.09,0.38-0.17,0.57-0.26c0.29-0.2,0.23-0.72-0.05-0.9c-0.39-0.24-0.84-0.39-1.14-0.05
			c-0.12,0.13-0.18,0.33-0.16,0.51C104.65,82.36,105.01,82.66,105.4,82.66L105.4,82.66z"/>
	</g>
	<g>
		<path class="st1" d="M104.37,73.18c-0.2,0.29-0.26,0.63-0.1,0.97c0.15,0.33,0.45,0.58,0.83,0.56c0.3-0.02,0.54-0.22,0.62-0.51
			c0.03-0.09,0.04-0.18,0.02-0.28c0.02-0.03,0.04-0.05,0.07-0.08c0.02-0.25-0.12-0.46-0.24-0.66
			C105.27,72.71,104.67,72.75,104.37,73.18L104.37,73.18z"/>
	</g>
	<g>
		<path class="st1" d="M106.09,76.22c0.21,0.35,0.52,0.79,0.98,0.75c0.76-0.06,0.53-0.98,0.34-1.45c-0.17-0.42-0.71-0.63-1.11-0.41
			C105.85,75.35,105.86,75.83,106.09,76.22L106.09,76.22z"/>
	</g>
	<g>
		<path class="st1" d="M107.44,76.69c0.27,0.07,0.54,0.14,0.81,0.2c0.78,0.19,1.04-0.84,0.33-1.13c-0.29-0.12-0.58-0.24-0.87-0.36
			c-0.33-0.13-0.72,0.13-0.79,0.46C106.84,76.21,107.09,76.6,107.44,76.69L107.44,76.69z"/>
	</g>
	<g>
		<path class="st1" d="M111.74,70.65c-4.04-3.73-0.51-8.71,1.33-12.44c1.67-3.39,2.71-6.83,0.83-10.34
			c-2.08-3.89-5.3-7.06-4.77-11.83c0.44-3.92,2.51-7.43,3.36-11.25c0.11-0.5-0.72-0.88-0.9-0.34c-1.45,4.22-4.14,8.53-4.14,13.1
			c0,4.57,3.55,7.8,4.06,12.2c0.74,6.46-7.72,16.58-0.26,21.61C111.71,71.67,112.11,70.99,111.74,70.65L111.74,70.65z"/>
	</g>
	<g>
		<path class="st1" d="M43.37,125.09c4.86-4.43,9.57-8.95,14.91-12.82c5.22-3.79,9.39-8.47,13.83-13.11
			c4.86-5.09,9.87-10.02,15.31-14.49c4.87-4.01,9.94-7.8,14.06-12.61c0.63-0.73-0.63-1.7-1.26-0.98c-4.3,4.92-9.48,8.8-14.47,12.98
			c-4.98,4.16-9.61,8.71-14.13,13.37c-4.96,5.11-9.66,10.18-15.41,14.43c-4.97,3.68-9.31,8-13.41,12.62
			C42.47,124.85,42.98,125.44,43.37,125.09L43.37,125.09z"/>
	</g>
</g>
</svg>
