<?xml version="1.0" encoding="utf-8"?>
<!-- Generator: Adobe Illustrator 25.2.1, SVG Export Plug-In . SVG Version: 6.00 Build 0)  -->
<svg version="1.1" id="Layer_1" xmlns="http://www.w3.org/2000/svg" xmlns:xlink="http://www.w3.org/1999/xlink" x="0px" y="0px"
	 viewBox="0 0 162.73 161.93" style="enable-background:new 0 0 162.73 161.93;" xml:space="preserve">
<style type="text/css">
	.st0{fill:#CDE2EB;stroke:#0081A6;stroke-width:4;stroke-miterlimit:10;}
	.st1{fill:#0081A6;stroke:#0081A6;stroke-miterlimit:10;}
</style>
<circle class="st0" cx="81.36" cy="80.68" r="78.45"/>
<g>
	<path class="st1" d="M92.2,127.23c-1.15-0.33-2.34-0.58-3.46-1c-3.91-1.49-6.9-4.22-9.46-7.42c-5.34-6.66-8.55-14.35-10.87-22.48
		c-0.01-0.03-0.02-0.06-0.02-0.09c-0.11-1.16-0.65-1.64-1.91-1.85c-3.81-0.64-6.85-2.8-9.53-5.47c-3.51-3.5-6.15-7.63-8.32-12.05
		c-3.62-7.36-5.99-15.12-7.04-23.26c-0.56-4.33-0.86-8.69,0.11-13.01c0.51-2.28,1.46-4.31,3.62-5.51c1.66-0.92,3.47-1.14,5.28-0.82
		c2.74,0.47,5.48,1,8.16,1.71c7.37,1.94,14.66,1.6,21.97-0.38c2.55-0.69,5.21-1.21,7.84-1.36c3.91-0.23,6.36,1.76,7.47,5.54
		c0.71,2.41,0.86,4.89,0.79,7.38c-0.21,7.6-1.63,14.96-4.24,22.1c-0.06,0.16-0.08,0.34-0.19,0.78c2.82-0.29,5.55-0.43,8.21-0.89
		c3.33-0.58,6.61-1.46,9.93-2.14c1.88-0.39,3.79-0.5,5.66,0.1c2.71,0.87,4.03,2.95,4.71,5.54c0.96,3.63,0.84,7.33,0.5,11.02
		c-0.71,7.81-2.7,15.3-5.8,22.49c-2.54,5.87-5.7,11.37-10.38,15.84c-2.74,2.62-5.86,4.57-9.71,5.12c-0.08,0.01-0.15,0.09-0.23,0.13
		C94.26,127.23,93.23,127.23,92.2,127.23z M44.03,46.83c0.39,3.33,0.63,6.27,1.1,9.16c1.55,9.53,4.82,18.41,10.33,26.4
		c1.81,2.63,3.95,4.99,6.6,6.81c2.22,1.52,4.62,2.58,7.37,2.37c3.16-0.24,5.85-1.58,8.2-3.7c4.32-3.88,7.29-8.72,9.7-13.91
		c3.96-8.52,6.18-17.49,6.39-26.92c0.05-2.27-0.01-4.54-0.76-6.73c-0.74-2.15-1.92-3.02-4.19-3.04c-0.48,0-0.98,0.01-1.45,0.11
		c-2.05,0.4-4.12,0.72-6.13,1.28c-7.82,2.15-15.62,2.35-23.49,0.24c-2.56-0.69-5.19-1.15-7.82-1.56c-2.61-0.42-4.3,0.61-4.91,3.16
		C44.45,42.68,44.29,44.96,44.03,46.83z M71.15,94.53c1.31,5.31,3.68,11.38,6.26,15.97c2.31,4.12,5.01,7.92,8.82,10.85
		c4.56,3.51,9.69,3.75,14.36,0.4c1.75-1.26,3.36-2.79,4.78-4.42c4.06-4.68,6.71-10.18,8.87-15.93c2.61-6.97,4.01-14.19,4.28-21.63
		c0.08-2.3-0.02-4.61-0.73-6.83c-0.71-2.25-1.94-3.2-4.3-3.11c-1.47,0.06-2.97,0.25-4.39,0.61c-5.7,1.45-11.42,2.77-17.36,2.46
		c-0.59-0.03-0.65,0.39-0.85,0.75c-1.68,3.15-3.36,6.29-5.06,9.42c-0.21,0.39-0.49,0.75-0.79,1.19c1.91,0.59,3.48,1.55,4.7,3.05
		c1.36,1.67,0.99,4.03-0.9,5.06c-0.73,0.4-1.56,0.71-2.37,0.85c-2.69,0.46-5.22-0.14-7.64-1.33c-0.3-0.15-0.78-0.32-0.98-0.19
		C75.78,93.04,73.6,94.05,71.15,94.53z M87.52,89.55c-1.14-1.55-2.65-2.25-4.39-2.56c-0.12-0.02-0.3,0.07-0.39,0.16
		c-0.68,0.71-1.35,1.43-2.08,2.22C82.97,90.29,85.17,90.79,87.52,89.55z"/>
	<path class="st1" d="M60.74,60.9c-3.97-0.2-7-0.97-9.3-3.6c-1.61-1.83-1-4.34,1.21-5.4c3.69-1.76,9.67-0.31,12.16,2.72
		c1.47,1.79,1.18,4.3-0.91,5.29C62.72,60.47,61.39,60.71,60.74,60.9z M62.61,57.01c-1.37-2.47-6.76-3.68-8.94-2.05
		C54.51,57.11,60.19,58.76,62.61,57.01z"/>
	<path class="st1" d="M77.7,61.05c-1.12-0.34-2.45-0.57-3.63-1.12c-2.11-0.99-2.42-3.47-0.95-5.28c2.47-3.03,8.42-4.52,12.15-2.75
		c1.99,0.95,2.79,3.1,1.59,4.97c-1.1,1.71-2.81,2.66-4.68,3.25C80.81,60.55,79.36,60.72,77.7,61.05z M84.28,54.97
		c-2.19-1.65-7.68-0.4-8.94,2.03C77.56,58.75,83.34,57.21,84.28,54.97z"/>
	<path class="st1" d="M68.97,79.23c-4.08-0.2-7.54-1.58-9.73-5.27c-0.31-0.51-0.52-1.09-0.72-1.66c-0.34-0.95,0-1.81,0.81-2.12
		c0.87-0.34,1.76,0.05,2.06,1.07c1.52,5.09,9.63,6.67,13.7,2.38c0.64-0.67,1.04-1.61,1.45-2.47C77,70.17,77.7,69.71,78.59,70
		c0.85,0.28,1.21,1.15,0.89,2.16c-1.19,3.71-4.83,6.56-8.85,6.92C70.08,79.13,69.53,79.18,68.97,79.23z"/>
	<path class="st1" d="M102.04,93.41c-0.61-0.16-1.77-0.32-2.81-0.76c-2.41-1.04-2.95-3.72-1.24-5.71c2.43-2.82,8.43-4.15,11.85-2.63
		c2.72,1.21,3.18,4.2,0.93,6.18C108.43,92.55,105.61,93.3,102.04,93.41z M109.08,87.52c-1.6-1.83-8.52-0.15-8.93,2.08
		C102.2,91.21,108.2,89.73,109.08,87.52z"/>
	<path class="st1" d="M93.73,102.45c4.22,0.22,7.64,1.62,9.81,5.28c0.3,0.51,0.52,1.09,0.71,1.66c0.33,0.95-0.03,1.76-0.89,2.07
		c-0.81,0.3-1.61-0.03-1.95-0.98c-1.05-2.87-3.25-4.23-6.1-4.79c-3.26-0.64-6.96,0.85-8.49,3.43c-0.24,0.41-0.41,0.87-0.59,1.32
		c-0.43,1.07-1.14,1.5-2,1.2c-0.93-0.32-1.28-1.15-0.9-2.22c1.35-3.88,4.27-5.86,8.12-6.7C92.24,102.54,93.06,102.52,93.73,102.45z"
		/>
</g>
</svg>
