<?xml version="1.0" encoding="utf-8"?>
<!-- Generator: Adobe Illustrator 25.2.1, SVG Export Plug-In . SVG Version: 6.00 Build 0)  -->
<svg version="1.1" id="Layer_1" xmlns="http://www.w3.org/2000/svg" xmlns:xlink="http://www.w3.org/1999/xlink" x="0px" y="0px"
	 viewBox="0 0 162.73 161.93" style="enable-background:new 0 0 162.73 161.93;" xml:space="preserve">
<style type="text/css">
	.st0{fill:#CDE2EB;stroke:#0081A6;stroke-width:4;stroke-miterlimit:10;}
	.st1{fill:#0081A6;}
</style>
<circle class="st0" cx="81.36" cy="81.11" r="78.45"/>
<g>
	<path class="st1" d="M34.22,125.49c0.41-0.9,1.14-1.16,2.09-1.16c30.05,0.01,60.1,0.01,90.15,0.01c0.28,0,0.56,0,0.82,0.06
		c0.75,0.16,1.18,0.67,1.22,1.42c0.04,0.75-0.33,1.31-1.07,1.53c-0.37,0.11-0.79,0.13-1.18,0.13c-29.93,0.01-59.85,0-89.78,0.01
		c-0.96,0-1.74-0.23-2.26-1.08C34.22,126.1,34.22,125.8,34.22,125.49z"/>
	<path class="st1" d="M87.7,55.17c3.15,0,6.18,0,9.3,0c0,20.94,0,41.85,0,62.81c-3.1,0-6.19,0-9.3,0
		C87.7,97.03,87.7,76.14,87.7,55.17z"/>
	<path class="st1" d="M65.75,70.94c3.14,0,6.2,0,9.3,0c0,15.7,0,31.34,0,47.04c-3.12,0-6.2,0-9.3,0
		C65.75,102.26,65.75,86.6,65.75,70.94z"/>
	<path class="st1" d="M119.06,117.99c-3.14,0-6.19,0-9.31,0c0-13.59,0-27.14,0-40.75c3.09,0,6.17,0,9.31,0
		C119.06,90.81,119.06,104.36,119.06,117.99z"/>
	<path class="st1" d="M114.16,56.93c1.92-0.23,3.35,1.14,3.34,2.95c0,1.78-1.51,3.23-3.27,3.13c-1.82-0.1-3.12-1.67-2.96-3.51
		c0.02-0.25-0.1-0.59-0.27-0.77c-5.8-5.83-11.62-11.64-17.45-17.44c-0.2-0.2-0.56-0.24-0.86-0.33c-0.08-0.03-0.2,0.05-0.27,0.02
		c-1.41-0.61-2.27,0.41-3.23,1.1c-5.1,3.63-10.19,7.27-15.26,10.93c-0.23,0.16-0.41,0.51-0.45,0.79c-0.25,2.1-1.92,3.26-4.01,2.81
		c-0.27-0.06-0.65,0.02-0.87,0.18c-5.5,3.91-10.98,7.85-16.48,11.76c-0.4,0.28-0.61,0.54-0.67,1.08c-0.19,1.86-1.88,3.11-3.64,2.78
		c-1.75-0.32-2.89-2.03-2.52-3.77c0.37-1.72,2.06-2.73,3.88-2.35c0.3,0.06,0.73-0.02,0.98-0.19c5.55-3.94,11.09-7.91,16.62-11.88
		c0.21-0.15,0.39-0.45,0.43-0.7c0.38-2.32,1.83-3.34,4.1-2.89c0.25,0.05,0.59-0.06,0.8-0.21c5.57-3.97,11.14-7.94,16.69-11.94
		c0.24-0.17,0.41-0.56,0.45-0.87c0.2-1.72,1.69-3.01,3.36-2.84c1.83,0.18,3.02,1.67,2.86,3.5c-0.02,0.25,0.1,0.59,0.28,0.77
		c5.78,5.81,11.57,11.6,17.38,17.38C113.4,56.65,113.82,56.75,114.16,56.93z"/>
	<path class="st1" d="M43.67,86.65c3.15,0,6.21,0,9.34,0c0,10.46,0,20.87,0,31.33c-3.13,0-6.21,0-9.34,0
		C43.67,107.52,43.67,97.13,43.67,86.65z"/>
</g>
</svg>
