<?xml version="1.0" encoding="utf-8"?>
<!-- Generator: Adobe Illustrator 25.2.1, SVG Export Plug-In . SVG Version: 6.00 Build 0)  -->
<svg version="1.1" id="Layer_1" xmlns="http://www.w3.org/2000/svg" xmlns:xlink="http://www.w3.org/1999/xlink" x="0px" y="0px"
	 viewBox="0 0 162.73 161.93" style="enable-background:new 0 0 162.73 161.93;" xml:space="preserve">
<style type="text/css">
	.st0{fill:#CDE2EB;stroke:#0081A6;stroke-width:4;stroke-miterlimit:10;}
	.st1{fill:#0081A6;}
</style>
<circle class="st0" cx="81.36" cy="80.97" r="78.45"/>
<g>
	<path class="st1" d="M20.71,74.91c0.43-0.21,0.87-0.39,1.28-0.64C41.44,62.25,60.9,50.23,80.34,38.21c0.65-0.4,1.16-0.61,1.94-0.12
		c19.61,12.16,39.25,24.27,58.87,36.4c0.24,0.15,0.47,0.32,0.86,0.58c-0.51,0.35-0.92,0.64-1.34,0.91c-3,1.92-6.02,3.81-9,5.79
		c-0.37,0.25-0.74,0.94-0.75,1.44c-0.06,3.84-0.06,7.68-0.01,11.51c0.01,0.48,0.31,1.08,0.64,1.41c1.5,1.47,1.71,3.85,0.42,5.46
		c-1.21,1.5-3.41,1.53-4.56,0.07c-1.32-1.67-1.17-4,0.31-5.47c0.3-0.3,0.68-0.74,0.69-1.12c0.05-3.65,0.03-7.3,0.03-11.14
		c-0.4,0.23-0.68,0.35-0.93,0.53c-2.96,2.1-5.93,4.18-8.86,6.34c-0.37,0.27-0.73,0.97-0.73,1.47c0,3.46,0.15,6.92,0.1,10.38
		c-0.01,0.73-0.53,1.77-1.07,2.11c-1.76,1.09-3.57,2.16-5.47,2.8c-5.94,2.01-12.07,2.76-18.22,3.24
		c-8.76,0.68-17.53,0.64-26.28-0.23c-5.86-0.58-11.71-1.41-17.32-3.59c-1.4-0.54-2.72-1.43-3.98-2.33c-0.76-0.54-0.93-1.44-0.88-2.6
		c0.16-3.41,0.08-6.84,0.05-10.27c0-0.28-0.27-0.65-0.5-0.81c-7.84-5.28-15.69-10.54-23.54-15.8c-0.03-0.02-0.08,0.01-0.12,0.01
		C20.71,75.09,20.71,75,20.71,74.91z M77.74,108.15c12.31-0.25,21.08-0.43,29.73-2.29c1.92-0.41,3.81-1.13,5.63-1.96
		c1.17-0.53,1.13-1.6,0.01-2.31c-0.79-0.5-1.66-0.86-2.52-1.13c-5.14-1.59-10.41-2.13-15.69-2.49c-11.61-0.79-23.21-0.78-34.77,0.85
		c-3.19,0.45-6.34,1.37-9.48,2.26c-0.67,0.19-1.18,1.14-1.76,1.74c0.58,0.55,1.09,1.4,1.76,1.61c2.5,0.79,5.03,1.68,7.6,1.96
		C65.91,107.23,73.59,107.79,77.74,108.15z M116.98,83.22c0.64-2.35-0.48-3.58-1.75-4.8c-3.95-3.79-8.6-5.85-13.48-7.35
		c-6.49-2-13.14-2.63-19.82-2.65c-8.16-0.03-16.25,0.74-24.06,3.73c-4.08,1.56-7.88,3.7-11.11,7.08c-1.08,1.14-1.24,2.38-0.97,4.02
		c0.6-0.57,1.09-1.07,1.62-1.53c4.46-3.87,9.61-5.8,14.98-7.1c8.45-2.04,17.01-2.36,25.58-1.74c4.32,0.31,8.65,0.95,12.9,1.89
		C106.76,76.09,112.33,78.47,116.98,83.22z"/>
	<path class="st1" d="M132.78,103.98c0,5.08,0,10.45,0,15.87c-3.39-1.16-5.04,1.63-7,4.29c0.45-7,0.88-13.66,1.29-20.16
		C129.04,103.98,130.88,103.98,132.78,103.98z"/>
</g>
</svg>
