<?xml version="1.0" encoding="utf-8"?>
<!-- Generator: Adobe Illustrator 25.2.1, SVG Export Plug-In . SVG Version: 6.00 Build 0)  -->
<svg version="1.1" id="Layer_1" xmlns="http://www.w3.org/2000/svg" xmlns:xlink="http://www.w3.org/1999/xlink" x="0px" y="0px"
	 viewBox="0 0 162.73 161.93" style="enable-background:new 0 0 162.73 161.93;" xml:space="preserve">
<style type="text/css">
	.st0{fill:#CDE2EB;stroke:#0081A6;stroke-width:4;stroke-miterlimit:10;}
	.st1{fill:#0081A6;}
</style>
<circle class="st0" cx="81.36" cy="80.97" r="78.45"/>
<g>
	<path class="st1" d="M127.84,41.86c-0.51,1.89-0.87,3.84-1.57,5.65c-1.67,4.36-4.58,7.63-8.93,9.52c-0.11,0.05-0.21,0.11-0.31,0.17
		c-0.02,0.01-0.03,0.05-0.09,0.13c4.71,9.19,5.19,18.61,1.09,28.4c0.39-0.17,0.65-0.26,0.88-0.4c4.42-2.82,9.11,0.12,8.54,5.3
		c-0.09,0.84-0.05,1.7-0.24,2.52c-0.28,1.26-1.09,2.2-2.13,2.95c-2.54,1.86-5.07,3.72-7.61,5.57c-0.27,0.19-0.56,0.38-0.87,0.47
		c-0.81,0.25-1.52,0.01-1.99-0.69c-0.47-0.69-0.47-1.44,0.08-2.1c0.25-0.3,0.56-0.55,0.87-0.78c2.36-1.74,4.72-3.49,7.11-5.19
		c0.82-0.58,1.22-1.29,1.15-2.29c-0.04-0.6,0.03-1.21-0.03-1.81c-0.1-1.1-0.96-1.64-2-1.29c-0.31,0.11-0.61,0.27-0.9,0.42
		c-4.88,2.47-9.77,4.92-14.64,7.41c-4.69,2.41-9.67,3.56-14.93,3.56c-7.62,0-15.25,0-22.87,0c-2.88,0-3.55,0.74-3.27,3.59
		c0.12,1.3-0.5,2.22-1.58,2.33c-1.1,0.11-1.95-0.64-2.01-1.95c-0.06-1.05-0.08-2.13,0.14-3.14c0.58-2.68,2.61-4.37,5.36-4.41
		c4.72-0.07,9.44-0.04,14.16-0.05c2.57,0,5.13,0,7.68,0c0.6-1.8-0.1-3.4-1.8-4.11c-3.07-1.28-6.29-1.99-9.6-2.16
		c-3.59-0.18-6.97-1.09-10.25-2.48c-1.64-0.7-3.29-1.36-4.92-2.08c-1.12-0.49-2.27-0.56-3.36-0.11c-3.17,1.32-6.31,2.72-9.45,4.12
		c-0.21,0.09-0.41,0.46-0.41,0.7c-0.02,8.02-0.01,16.04-0.01,24.05c0,0.11,0.05,0.23,0.09,0.43c0.33,0,0.66,0,0.98,0
		c5.69,0,11.38-0.02,17.06,0.01c5.62,0.03,11.15-0.81,16.67-1.71c4.26-0.69,8.55-1.28,12.78-2.14c1.77-0.36,3.42-1.29,5.11-2.01
		c0.52-0.22,0.96-0.63,1.47-0.9c0.96-0.52,1.94-0.3,2.48,0.51c0.56,0.84,0.39,1.96-0.58,2.53c-1.63,0.96-3.26,2.09-5.04,2.61
		c-3.03,0.89-6.16,1.45-9.28,1.98c-4.56,0.78-9.13,1.52-13.71,2.07c-3.3,0.4-6.63,0.59-9.95,0.65c-5.66,0.1-11.32,0.03-16.97,0.03
		c-0.33,0-0.66,0-1.12,0c0,0.93,0.01,1.8,0,2.66c-0.02,1.73-0.62,2.33-2.37,2.34c-3.15,0.01-6.29-0.01-9.44,0.01
		c-1.1,0.01-1.94-0.33-2.41-1.37c0-13.43,0-26.87,0-40.3c0.53-0.98,1.33-1.34,2.45-1.32c3.12,0.05,6.23,0.02,9.35,0.02
		c1.85,0,2.41,0.58,2.42,2.46c0,0.86,0,1.73,0,2.55c3.37-1.36,6.66-2.69,9.93-4.01C56.29,67.71,59.5,56.23,70.4,47.98
		c12.54-9.49,25.62-8.6,38.5-0.03c1.92-2.86,4.58-4.9,7.71-6.34c2.71-1.25,5.58-1.94,8.53-2.35c1.5-0.21,1.96-0.02,2.69,1.33
		C127.84,41.01,127.84,41.43,127.84,41.86z M75.72,48.74c-8.4,4.61-13.4,13.85-13.71,21.07c0.57-0.12,1.14-0.19,1.67-0.37
		c2.57-0.85,5.15-1.69,7.69-2.63c0.89-0.33,1.44-1.01,1.68-2.07c0.2-0.9,0.77-1.76,1.36-2.5c0.63-0.8,1.7-0.82,2.44-0.24
		c0.75,0.58,0.87,1.52,0.35,2.44c-0.28,0.49-0.63,0.99-0.73,1.53c-0.3,1.66-1.3,2.76-2.65,3.61c-2.12,1.34-4.47,2.11-6.87,2.75
		c-1.71,0.46-3.44,0.85-5.21,1.29c0.11,2.53,0.49,4.97,1.28,7.33c0.08,0.23,0.38,0.44,0.63,0.54c1.63,0.71,3.28,1.39,4.92,2.09
		c2.94,1.24,5.97,2.08,9.19,2.25c3.42,0.18,6.75,0.95,9.99,2.11c3.12,1.11,4.94,3.14,4.97,6.56c0,0.37,0,0.75,0,1.15
		c4.22-0.14,8.03-1.17,11.74-3.05c-0.64-0.34-1.24-0.57-1.72-0.95c-0.88-0.71-1.92-1.36-2.49-2.29c-1.74-2.82-2.05-5.93-0.97-9.06
		c0.47-1.37,0.62-2.65,0.34-4.06c-0.26-1.3-0.39-2.63-0.44-3.95c-0.04-1.19,0.39-2.33,1.4-3.01c1.62-1.1,3.31-2.09,5-3.07
		c0.52-0.3,0.82-0.57,0.53-1.16c-0.08-0.03-0.14-0.06-0.2-0.07c-0.12-0.02-0.24-0.03-0.36-0.04c-5.87-0.34-10.18-3.08-12.55-8.49
		c-0.81-1.85-1.23-3.9-1.6-5.91c-0.27-1.42,0.75-2.27,2.2-2.13c0.39,0.04,0.78,0.11,1.16,0.18c3.85,0.64,7.43,1.89,10.43,4.5
		c0.39,0.34,0.77,0.71,1.19,1.1c0.2-0.74,0.34-1.4,0.57-2.02c0.21-0.57,0.1-0.88-0.41-1.26c-5.91-4.42-12.51-6.45-19.89-5.77
		c-2.62,0.24-5.16,0.86-7.62,1.93c0.39,0.7,0.78,1.34,1.12,2.01c0.57,1.11,0.29,2.16-0.66,2.66c-0.9,0.47-1.88,0.11-2.51-0.92
		C76.55,50.14,76.15,49.46,75.72,48.74z M45.41,119.06c0-11.92,0-23.75,0-35.6c-2.32,0-4.57,0-6.84,0c0,11.89,0,23.72,0,35.6
		C40.86,119.06,43.09,119.06,45.41,119.06z M106.21,69.85c-1.08,0.68-2.01,1.18-2.84,1.82c-0.32,0.25-0.59,0.8-0.57,1.2
		c0.05,1.02,0.26,2.03,0.44,3.04c0.33,1.79,0.31,3.52-0.42,5.24c-0.31,0.73-0.45,1.57-0.49,2.37c-0.14,2.94,0.84,4.47,3.5,5.69
		c0.38,0.18,0.78,0.32,1.15,0.52c1.21,0.65,2.37,0.74,3.52-0.14c0.59-0.45,1.44-0.68,1.82-1.25c4.24-6.27,5.64-13.18,4.39-20.63
		c-0.12-0.69-0.33-1.37-0.5-2.09c-1.94,0.78-3.75,1.54-5.58,2.23c-0.65,0.25-0.81,0.61-0.81,1.28c0.03,3.6,0.02,7.19,0.01,10.79
		c0,1.48-0.67,2.35-1.8,2.38c-1.15,0.03-1.83-0.86-1.84-2.41c0-0.21,0-0.42,0-0.63C106.21,76.21,106.21,73.16,106.21,69.85z
		 M110.08,54.79c7.45,0.07,12.38-4.75,13.66-11.56C116.44,44.29,110.88,48.82,110.08,54.79z M95.41,52.44
		c1.36,5.94,5.98,9.01,10.52,8.74C105.26,57.03,100.87,53.36,95.41,52.44z M109.91,58.54c0,1.9,0,3.75,0,5.69
		c1.78-0.71,3.47-1.39,5.28-2.11c-0.61-1.22-1.18-2.37-1.78-3.51c-0.09-0.17-0.36-0.35-0.54-0.34
		C111.88,58.33,110.9,58.45,109.91,58.54z"/>
	<path class="st1" d="M112.08,104.78c0.01,1.02-0.76,1.82-1.74,1.83c-0.99,0.01-1.86-0.86-1.85-1.86c0.01-1,0.8-1.76,1.81-1.75
		C111.32,103.01,112.08,103.77,112.08,104.78z"/>
	<path class="st1" d="M80.34,57.21c0.02,1.01-0.73,1.83-1.71,1.86c-0.99,0.03-1.86-0.82-1.87-1.82c-0.01-1.01,0.75-1.78,1.77-1.79
		C79.53,55.45,80.32,56.21,80.34,57.21z"/>
</g>
</svg>
