<?xml version="1.0" encoding="utf-8"?>
<!-- Generator: Adobe Illustrator 25.2.1, SVG Export Plug-In . SVG Version: 6.00 Build 0)  -->
<svg version="1.1" id="Layer_1" xmlns="http://www.w3.org/2000/svg" xmlns:xlink="http://www.w3.org/1999/xlink" x="0px" y="0px"
	 viewBox="0 0 162.73 161.93" style="enable-background:new 0 0 162.73 161.93;" xml:space="preserve">
<style type="text/css">
	.st0{fill:#CDE2EB;stroke:#0081A6;stroke-width:4;stroke-miterlimit:10;}
	.st1{fill:#0081A6;}
</style>
<circle class="st0" cx="81.56" cy="80.95" r="78.45"/>
<g>
	<path class="st1" d="M129.27,126.81c-31.78,0-63.57,0-95.42,0c0-1.08,0-2.13,0-3.29c0.4,0,0.79,0,1.18,0c31.01,0,62.02,0,93.03,0
		c0.4,0,0.81-0.01,1.21-0.01C129.27,124.61,129.27,125.71,129.27,126.81z"/>
	<path class="st1" d="M41.12,49.64c2.43-0.99,4.86-1.97,7.29-2.96c10.78-4.38,21.56-8.77,32.35-13.12c0.43-0.17,1.04-0.2,1.46-0.03
		c13.03,5.26,26.05,10.55,39.06,15.84c0.22,0.09,0.43,0.21,0.86,0.41c-27.14,0-54.06,0-80.98,0C41.15,49.73,41.13,49.69,41.12,49.64
		z"/>
	<path class="st1" d="M38.97,59.95c3.36,0,6.7,0,10.09,0c0,17.82,0,35.6,0,53.45c-3.34,0-6.68,0-10.09,0
		C38.97,95.6,38.97,77.8,38.97,59.95z"/>
	<path class="st1" d="M72.92,113.41c-3.38,0-6.72,0-10.11,0c0-17.83,0-35.61,0-53.45c3.37,0,6.71,0,10.11,0
		C72.92,77.75,72.92,95.53,72.92,113.41z"/>
	<path class="st1" d="M100.24,113.43c-3.39,0-6.71,0-10.09,0c0-17.83,0-35.62,0-53.48c3.36,0,6.7,0,10.09,0
		C100.24,77.76,100.24,95.54,100.24,113.43z"/>
	<path class="st1" d="M124.11,113.43c-3.38,0-6.7,0-10.09,0c0-17.82,0-35.62,0-53.48c3.35,0,6.69,0,10.09,0
		C124.11,77.76,124.11,95.54,124.11,113.43z"/>
	<path class="st1" d="M76.48,59.94c3.38,0,6.69,0,10.08,0c0,17.82,0,35.62,0,53.47c-3.35,0-6.69,0-10.08,0
		C76.48,95.59,76.48,77.82,76.48,59.94z"/>
	<path class="st1" d="M52.61,59.94c2.27,0,4.46,0,6.7,0c0,17.82,0,35.6,0,53.45c-2.21,0-4.43,0-6.7,0
		C52.61,95.59,52.61,77.82,52.61,59.94z"/>
	<path class="st1" d="M103.75,113.41c0-17.86,0-35.63,0-53.46c2.23,0,4.42,0,6.69,0c0,17.82,0,35.61,0,53.46
		C108.22,113.41,106.03,113.41,103.75,113.41z"/>
	<path class="st1" d="M35.56,53.21c30.69,0,61.3,0,91.96,0c0,1.09,0,2.14,0,3.25c-30.67,0-61.3,0-91.96,0
		C35.56,55.35,35.56,54.28,35.56,53.21z"/>
	<path class="st1" d="M127.53,116.89c0,1.1,0,2.15,0,3.25c-30.68,0-61.31,0-91.99,0c0-1.1,0-2.15,0-3.25
		C66.21,116.89,96.84,116.89,127.53,116.89z"/>
</g>
</svg>
