<?xml version="1.0" encoding="utf-8"?>
<!-- Generator: Adobe Illustrator 25.2.1, SVG Export Plug-In . SVG Version: 6.00 Build 0)  -->
<svg version="1.1" id="Layer_1" xmlns="http://www.w3.org/2000/svg" xmlns:xlink="http://www.w3.org/1999/xlink" x="0px" y="0px"
	 viewBox="0 0 162.73 161.93" style="enable-background:new 0 0 162.73 161.93;" xml:space="preserve">
<style type="text/css">
	.st0{fill:#CDE2EB;stroke:#0081A6;stroke-width:4;stroke-miterlimit:10;}
	.st1{fill:#0081A6;}
</style>
<circle class="st0" cx="81.19" cy="80.97" r="78.45"/>
<g>
	<path class="st1" d="M68.59,36.14c8.4,0,16.81,0,25.21,0c0.16,0.05,0.32,0.13,0.48,0.16c3.88,0.63,6.85,2.64,8.95,5.93
		c1.57,2.45,2.02,5.17,1.94,8.02c-0.04,1.18-0.01,2.37-0.01,3.63c0.45,0,0.8,0,1.14,0c2.8,0.03,5.61-0.1,8.38,0.14
		c4.53,0.39,8.08,2.51,10.15,6.69c0.56,1.12,0.79,2.41,1.17,3.62c0,16.69,0,33.38,0,50.08c-0.05,0.13-0.13,0.27-0.15,0.4
		c-1.13,6.59-6.25,10.97-12.93,10.97c-21.18,0.01-42.36,0.01-63.54,0c-7.37-0.01-13.01-5.6-13.02-12.94
		c-0.03-15.64-0.02-31.28,0.02-46.91c0-1.37,0.22-2.82,0.69-4.1c1.8-4.85,5.56-7.3,10.55-7.79c2.81-0.27,5.65-0.11,8.48-0.15
		c0.34,0,0.68,0,1.11,0c0-1.86-0.08-3.61,0.02-5.35c0.28-5.09,2.74-8.84,7.29-11.11C65.79,36.81,67.23,36.56,68.59,36.14z
		 M101.66,98.41c0-5.77,0-11.42,0-17.16c-4.57,0-9.07,0-13.64,0c0-4.58,0-9.06,0-13.59c-4.57,0-9.07,0-13.67,0
		c0,4.55,0,9.06,0,13.65c-4.6,0-9.11,0-13.61,0c0,5.74,0,11.38,0,17.13c4.57,0,9.07,0,13.67,0c0,4.62,0,9.12,0,13.61
		c4.58,0,9.06,0,13.64,0c0-4.56,0-9.06,0-13.64C92.62,98.41,97.1,98.41,101.66,98.41z M98.24,53.83c0-1.86,0.14-3.67-0.03-5.45
		c-0.3-3.12-2.84-5.36-5.99-5.38c-7.35-0.04-14.7-0.03-22.06,0C67.33,43,64.68,45,64.29,47.69c-0.29,1.99-0.06,4.05-0.06,6.14
		C75.51,53.83,86.87,53.83,98.24,53.83z"/>
</g>
</svg>
