<?xml version="1.0" encoding="utf-8"?>
<!-- Generator: Adobe Illustrator 25.2.1, SVG Export Plug-In . SVG Version: 6.00 Build 0)  -->
<svg version="1.1" id="Layer_1" xmlns="http://www.w3.org/2000/svg" xmlns:xlink="http://www.w3.org/1999/xlink" x="0px" y="0px"
	 viewBox="0 0 162.73 161.93" style="enable-background:new 0 0 162.73 161.93;" xml:space="preserve">
<style type="text/css">
	.st0{fill:#CDE2EB;stroke:#0081A6;stroke-width:4;stroke-miterlimit:10;}
	.st1{fill:#0081A6;}
</style>
<circle class="st0" cx="81.23" cy="81.28" r="78.45"/>
<g>
	<path class="st1" d="M133.17,113.69c-0.78,1.27-1.87,1.65-3.35,1.38c-1.02-0.18-2.09-0.05-3.14-0.05c-5.34,0-10.68,0-16.02,0
		c-0.57,0-1.15,0.03-1.72,0.1c-1.91,0.23-2.97-0.64-2.99-2.61c-0.03-3.53-0.75-6.92-2.32-10.07c-4.06-8.15-10.59-12.98-19.69-14.09
		c-12.8-1.56-25.01,7.39-27.17,20.76c-0.18,1.13-0.2,2.28-0.25,3.43c-0.09,1.95-1.1,2.82-3.03,2.57c-0.3-0.04-0.6-0.09-0.91-0.09
		c-6.49-0.01-12.98-0.01-19.47,0c-0.37,0-0.74,0.08-1.11,0.11c-1.69,0.15-2.77-0.77-2.71-2.47c0.31-8.4,4.28-14.53,11.79-18.18
		c5.35-2.6,10.89-2.56,16.4-0.3c0.63,0.26,0.98,0.2,1.45-0.33c6.76-7.64,15.27-11.09,25.4-10.13c7.58,0.72,13.91,4.14,18.94,9.86
		c0.64,0.73,1.1,0.83,2.01,0.47c12.36-4.92,25.76,2.91,27.7,16.13c0.02,0.16,0.12,0.3,0.18,0.45
		C133.17,111.67,133.17,112.68,133.17,113.69z"/>
	<path class="st1" d="M61.24,76.78c0.01,6.2-5.08,11.31-11.28,11.32c-6.19,0.01-11.31-5.08-11.33-11.27
		c-0.02-6.25,5.11-11.41,11.32-11.38C56.17,65.49,61.23,70.57,61.24,76.78z"/>
	<path class="st1" d="M124.13,76.35c0.44,5.91-4.47,11.32-10.62,11.74c-6.08,0.41-11.55-4.4-11.96-10.5
		c-0.42-6.32,4.27-11.68,10.78-12.07C118.71,65.14,123.9,70.18,124.13,76.35z"/>
	<path class="st1" d="M81.27,79.04c-8.73,0.03-15.84-7.03-15.86-15.73c-0.02-8.76,7.1-15.91,15.82-15.91
		c8.65,0.01,15.78,7.1,15.81,15.72C97.07,71.92,90.05,79.01,81.27,79.04z M70.07,63.22c-0.01,6.21,5.04,11.28,11.19,11.24
		c6.16-0.04,11.11-5.03,11.12-11.2c0.02-6.19-4.92-11.18-11.09-11.19C75.05,52.05,70.08,56.98,70.07,63.22z"/>
</g>
</svg>
