<?xml version="1.0" encoding="utf-8"?>
<!-- Generator: Adobe Illustrator 25.2.1, SVG Export Plug-In . SVG Version: 6.00 Build 0)  -->
<svg version="1.1" id="Layer_1" xmlns="http://www.w3.org/2000/svg" xmlns:xlink="http://www.w3.org/1999/xlink" x="0px" y="0px"
	 viewBox="0 0 162.73 161.93" style="enable-background:new 0 0 162.73 161.93;" xml:space="preserve">
<style type="text/css">
	.st0{display:none;fill:#CDE2EB;stroke:#0081A6;stroke-width:4;stroke-miterlimit:10;}
	.st1{display:none;}
	.st2{display:inline;}
	.st3{fill:#0081A6;stroke:#0081A6;stroke-miterlimit:10;}
	.st4{fill:#0081A6;}
	.st5{fill:#CDE2EB;stroke:#0081A6;stroke-width:4;stroke-miterlimit:10;}
</style>
<circle class="st0" cx="81.43" cy="80.83" r="78.45"/>
<g class="st1">
	<g class="st2">
		<path class="st3" d="M100.49,73.17c0.29,2.66,2.44,4.96,4.62,6.33c1.81,1.13,4.98,2.4,5.8-0.48c1.37-4.8-5-10.07-9.45-8.46
			c-0.59,0.21-0.27,1.12,0.27,1.15c3.42,0.21,7.17,1.68,7.69,5.58c0.13,0.96,0.11,0.91-0.93,1.35c-0.99,0.42-0.9,0.46-1.68,0.1
			c-0.8-0.37-1.56-0.84-2.23-1.42c-1.46-1.25-2.26-2.83-3.25-4.42C101.09,72.52,100.43,72.68,100.49,73.17L100.49,73.17z"/>
	</g>
	<g class="st2">
		<path class="st3" d="M109.22,80.4c-9.33,9.46-20.43,16.85-30.21,25.85c-10.63,9.78-20.88,20.14-32.91,28.24
			c-0.55,0.37,0.11,1.25,0.67,0.88c11.06-7.4,20.69-16.5,30.45-25.49c6.21-5.72,12.52-11.26,19.2-16.43
			c4.76-3.68,10.07-7.44,13.43-12.53C110.07,80.57,109.54,80.08,109.22,80.4L109.22,80.4z"/>
	</g>
	<g class="st2">
		<path class="st3" d="M42.99,123.95c-3,2.13-4.14,6.1-1.76,9.17c2.07,2.68,5.93,2.96,8.13,0.33c0.55-0.65-0.38-1.54-1.01-0.97
			c-2.2,1.97-5.59,0.9-6.45-1.81c-0.68-2.15,0.27-4.41,1.78-5.96C44.05,124.32,43.43,123.64,42.99,123.95L42.99,123.95z"/>
	</g>
	<g class="st2">
		<path class="st3" d="M60.72,110.2c-1.47,2.16-1.59,4.93-0.3,7.21c0.89,1.59,3.66,4.11,5.28,2.03c0.36-0.46-0.24-1.04-0.72-0.88
			c-1.93,0.63-3.49-1.4-4.02-3.04c-0.53-1.65-0.39-3.37,0.47-4.88C61.69,110.21,61.02,109.76,60.72,110.2L60.72,110.2z"/>
	</g>
	<g class="st2">
		<path class="st3" d="M63.65,107.01c-1.12,2.5-2.06,5.23-0.58,7.8c1.07,1.86,3.25,3.39,5.46,3.1c0.5-0.07,0.58-0.82,0.05-0.93
			c-1.89-0.38-3.68-1.05-4.62-2.86c-1.1-2.12-0.33-4.57,0.45-6.66C64.58,106.99,63.88,106.48,63.65,107.01L63.65,107.01z"/>
	</g>
	<g class="st2">
		<path class="st3" d="M98.93,75.17c-1.06,0.63-0.45,2.66,0.81,2.51c0.46-0.05,0.59-0.69,0.15-0.9c-0.31-0.15-0.47-0.53-0.26-0.84
			C99.95,75.48,99.42,74.87,98.93,75.17L98.93,75.17z"/>
	</g>
	<g class="st2">
		<path class="st3" d="M100.28,77.52c-0.12,0.48-0.15,1.56,0.57,1.59c0.67,0.03,0.66-1,0.55-1.46
			C101.28,77.16,100.44,76.89,100.28,77.52L100.28,77.52z"/>
	</g>
	<g class="st2">
		<path class="st3" d="M102.27,78.86c-0.34,0.48-0.48,1.1-0.34,1.68c0.07,0.29,0.33,0.52,0.64,0.51c0.27-0.01,0.55-0.23,0.54-0.53
			c-0.02-0.39,0.01-0.72,0.17-1.08C103.53,78.86,102.64,78.35,102.27,78.86L102.27,78.86z"/>
	</g>
	<g class="st2">
		<path class="st3" d="M103.19,80.52c-0.39,0.13-0.64,0.43-0.63,0.86c0.01,0.38,0.32,0.79,0.72,0.82c0.42,0.03,0.75-0.38,0.54-0.78
			c-0.05-0.09,0.01-0.01-0.01,0.03c-0.07,0.17,0.42,0.17-0.27,0.34c0.34-0.08,0.54-0.42,0.44-0.76
			C103.9,80.72,103.52,80.4,103.19,80.52L103.19,80.52z"/>
	</g>
	<g class="st2">
		<path class="st3" d="M105.4,82.66c0.19-0.09,0.38-0.17,0.57-0.26c0.29-0.2,0.23-0.72-0.05-0.9c-0.39-0.24-0.84-0.39-1.14-0.05
			c-0.12,0.13-0.18,0.33-0.16,0.51C104.65,82.36,105.01,82.66,105.4,82.66L105.4,82.66z"/>
	</g>
	<g class="st2">
		<path class="st3" d="M104.37,73.18c-0.2,0.29-0.26,0.63-0.1,0.97c0.15,0.33,0.45,0.58,0.83,0.56c0.3-0.02,0.54-0.22,0.62-0.51
			c0.03-0.09,0.04-0.18,0.02-0.28c0.02-0.03,0.04-0.05,0.07-0.08c0.02-0.25-0.12-0.46-0.24-0.66
			C105.27,72.71,104.67,72.75,104.37,73.18L104.37,73.18z"/>
	</g>
	<g class="st2">
		<path class="st3" d="M106.09,76.22c0.21,0.35,0.52,0.79,0.98,0.75c0.76-0.06,0.53-0.98,0.34-1.45c-0.17-0.42-0.71-0.63-1.11-0.41
			C105.85,75.35,105.86,75.83,106.09,76.22L106.09,76.22z"/>
	</g>
	<g class="st2">
		<path class="st3" d="M107.44,76.69c0.27,0.07,0.54,0.14,0.81,0.2c0.78,0.19,1.04-0.84,0.33-1.13c-0.29-0.12-0.58-0.24-0.87-0.36
			c-0.33-0.13-0.72,0.13-0.79,0.46C106.84,76.21,107.09,76.6,107.44,76.69L107.44,76.69z"/>
	</g>
	<g class="st2">
		<path class="st3" d="M111.74,70.65c-4.04-3.73-0.51-8.71,1.33-12.44c1.67-3.39,2.71-6.83,0.83-10.34
			c-2.08-3.89-5.3-7.06-4.77-11.83c0.44-3.92,2.51-7.43,3.36-11.25c0.11-0.5-0.72-0.88-0.9-0.34c-1.45,4.22-4.14,8.53-4.14,13.1
			c0,4.57,3.55,7.8,4.06,12.2c0.74,6.46-7.72,16.58-0.26,21.61C111.71,71.67,112.11,70.99,111.74,70.65L111.74,70.65z"/>
	</g>
	<g class="st2">
		<path class="st3" d="M43.37,125.09c4.86-4.43,9.57-8.95,14.91-12.82c5.22-3.79,9.39-8.47,13.83-13.11
			c4.86-5.09,9.87-10.02,15.31-14.49c4.87-4.01,9.94-7.8,14.06-12.61c0.63-0.73-0.63-1.7-1.26-0.98c-4.3,4.92-9.48,8.8-14.47,12.98
			c-4.98,4.16-9.61,8.71-14.13,13.37c-4.96,5.11-9.66,10.18-15.41,14.43c-4.97,3.68-9.31,8-13.41,12.62
			C42.47,124.85,42.98,125.44,43.37,125.09L43.37,125.09z"/>
	</g>
</g>
<circle class="st0" cx="81.36" cy="80.97" r="78.45"/>
<g class="st1">
	<g class="st2">
		<path class="st3" d="M76.56,31.18c-0.91,5.95-0.14,12.23,0.15,18.23c0.25,5.31-0.43,12.06,1.92,16.91
			c0.38,0.79,1.49,0.63,1.75-0.13c1.85-5.41,0.08-12.72-0.36-18.34c-0.44-5.58-0.54-11.32-2.03-16.74
			C77.79,30.36,76.68,30.43,76.56,31.18L76.56,31.18z"/>
	</g>
	<g class="st2">
		<path class="st3" d="M79.64,63.2c-4.12-1.7-8.1,0.8-10.14,4.53c-3.46,6.31-2.22,15.5-2.42,22.41c-0.24,8.71-0.46,17.42-0.62,26.13
			c-0.14,7.57-1.36,16.2,0.39,23.61c0.3,1.26,2.33,1.34,2.63,0.05c1.49-6.25,0.65-13.41,0.69-19.83c0.05-6.66,0.07-13.33,0.12-19.99
			c0.05-6.51,0.11-13.02,0.19-19.53c0.08-6.45,0.2-15.87,9.07-16.05C80.38,64.51,80.27,63.45,79.64,63.2L79.64,63.2z"/>
	</g>
	<g class="st2">
		<path class="st3" d="M85.45,31.14c-1.6,10.72-1.34,22.22-0.24,33c0.2,1.93,3.41,2.29,3.33,0.18c-0.42-10.98-0.6-22.13-1.61-33.06
			C86.85,30.44,85.58,30.25,85.45,31.14L85.45,31.14z"/>
	</g>
	<g class="st2">
		<path class="st3" d="M87.61,66.19c12.7-3.56,12.12,26.65,12.21,33.75c0.08,6.27-0.17,12.53-0.3,18.8
			c-0.07,3.19-0.1,6.38-0.07,9.58c0.02,2.91,0.98,8.4-2.67,9.49c-1.03,0.31-0.77,1.71,0.05,2.08c6.83,3.15,5.89-10.05,6.01-13.06
			c0.41-9.98,0.62-20.01,0.26-30c-0.3-8.49-0.62-17.7-3.81-25.69c-1.95-4.89-6.88-9.63-12.33-6.68
			C86.09,64.93,86.62,66.47,87.61,66.19L87.61,66.19z"/>
	</g>
	<g class="st2">
		<path class="st3" d="M67.21,139.19c1.34,2.73,5.04,2.67,7.77,3.12c3.6,0.59,7.27,1.01,10.92,0.96c4.26-0.06,15.9-0.99,15.96-6.98
			c0.01-1.01-1.49-1.96-2.16-0.89c-2.89,4.58-10.71,5.1-15.54,5.06c-2.67-0.02-5.33-0.31-7.98-0.69c-2.46-0.35-5.77-0.39-8.02-1.45
			C67.64,138.07,66.91,138.58,67.21,139.19L67.21,139.19z"/>
	</g>
	<g class="st2">
		<path class="st3" d="M76.66,30.47c-4.3,1.82-5.06-4.81-3.43-7.5c1.19-1.96,4.55-1.58,6.5-1.73c1.93-0.15,4.03-0.37,5.93,0.12
			c1.86,0.48,3.49,1.45,3.72,3.64c0.09,0.85-0.96,4.22-1.85,3.77c-1.3-0.65-2.65,0.76-1.58,1.92c3.45,3.76,6.73-4,5.96-6.86
			c-1.49-5.53-8.2-5.4-12.72-4.99c-2.16,0.2-5.5-0.14-7.21,1.5c-1.63,1.57-2.13,5.31-1.94,7.44c0.29,3.24,4.82,7.75,7.47,3.9
			C77.88,31.15,77.38,30.16,76.66,30.47L76.66,30.47z"/>
	</g>
	<g class="st2">
		<path class="st3" d="M68.49,90.49c6.48,1.94,13.28,2.5,20.03,2.15c3.8-0.2,9.86-0.1,12.17-3.66c0.42-0.64-0.34-1.63-1.05-1.55
			c-2.11,0.24-3.99,1.16-6.1,1.5c-2.93,0.46-5.94,0.56-8.89,0.58c-5.38,0.04-10.7-0.53-16.05-1.05
			C67.32,88.34,67.47,90.18,68.49,90.49L68.49,90.49z"/>
	</g>
	<g class="st2">
		<path class="st3" d="M74.34,71.09c-1.34,3.62-1.78,9.16,0.47,12.61c0.95,1.46,3.32,0.93,3.05-0.96c-0.04-0.27-0.07-0.54-0.08-0.81
			c-0.1-1.1-1.58-1.27-2.2-0.57c-0.23,0.26-0.46,0.52-0.7,0.78c1.01,0.33,2.02,0.67,3.03,1c-0.09-1.84-0.84-3.57-1.15-5.39
			c-0.36-2.11-0.65-4.25-0.96-6.37C75.7,70.69,74.63,70.31,74.34,71.09L74.34,71.09z"/>
	</g>
	<g class="st2">
		<path class="st3" d="M76.59,71.62c0.2-0.8,0.98-1.3,1.73-1.52c0.85-0.26,1.54-0.04,2.39,0c1.13,0.06,1.72-1.19,0.8-1.96
			c-1.19-0.99-2.99-0.79-4.23,0.01c-1.14,0.73-1.76,1.85-2.08,3.13C74.98,72.15,76.36,72.54,76.59,71.62L76.59,71.62z"/>
	</g>
	<g class="st2">
		<path class="st3" d="M74.34,126.8c-0.77,2.86-1.57,7.37,1.05,9.55c0.95,0.79,2.34,0.06,2.49-1.05c0.2-1.41-0.5-2.57-0.81-3.91
			c-0.3-1.29-0.47-2.66-0.4-3.98C76.73,126.2,74.7,125.44,74.34,126.8L74.34,126.8z"/>
	</g>
	<g class="st2">
		<path class="st3" d="M66.58,120.34c3.15,4.5,10.49,4.15,15.37,4.34c6.84,0.28,15.15-0.33,19.63-6.27c0.67-0.89-0.74-1.8-1.5-1.23
			c-4.63,3.47-9.43,5.24-15.28,5.35c-6.06,0.12-12.14-0.05-17.34-3.33C66.75,118.76,66.18,119.77,66.58,120.34L66.58,120.34z"/>
	</g>
	<g class="st2">
		<path class="st3" d="M76.96,22.35c-1.3,1.39-1.84,3.19-1.45,5.06c0.14,0.65,0.62,1,1.27,1.03c1.34,0.07,2.71,0.19,4.01-0.22
			c0.73-0.23,0.52-1.35-0.1-1.58c-1.34-0.48-2.81-0.42-4.21-0.42c0.4,0.25,0.8,0.5,1.19,0.75c-0.42-1.19-0.27-2.58,0.43-3.63
			C78.58,22.62,77.61,21.66,76.96,22.35L76.96,22.35z"/>
	</g>
	<g class="st2">
		<path class="st3" d="M81.63,29.28c0.4-0.01,0.86,0.04,1.24-0.09c0.64-0.23,0.55-1.12-0.07-1.31c-0.42-0.13-0.89-0.09-1.33-0.1
			C80.5,27.75,80.71,29.3,81.63,29.28L81.63,29.28z"/>
	</g>
</g>
<circle class="st0" cx="81.36" cy="80.97" r="78.45"/>
<g class="st1">
	<g class="st2">
		<path class="st4" d="M116.78,48.58v-1.42c0-1.12-1.08-2.16-2.18-2.16h-8.1v12.16h8.1c1.11,0,2.18-0.83,2.18-1.95v-1.38
			c1.71,0.13,3.43,1.23,3.43,2.59v48.42c0,1.44-2.13,2.7-3.92,2.7h-11.52v5.21h11.52c5.36,0,9.06-3.58,9.06-7.91V56.41
			C125.35,52.17,121.92,48.71,116.78,48.58z"/>
	</g>
	<g class="st2">
		<g>
			<rect x="44.76" y="123.75" class="st4" width="68.06" height="7.08"/>
		</g>
	</g>
	<g class="st2">
		<path class="st4" d="M100.5,31.1H55.7c-3.98,0-5.8,2.15-5.8,5.94v87.86h58.3V37.04C108.2,33.25,104.48,31.1,100.5,31.1z M99.63,78
			H58.47v-8.68h41.15V78z M99.63,63.41c0,1.34-1.08,2.43-2.4,2.43H60.88c-1.33,0-2.41-1.09-2.41-2.43V42.22
			c0-1.34,1.08-2.43,2.41-2.43h36.34c1.33,0,2.4,1.09,2.4,2.43V63.41z"/>
	</g>
</g>
<circle class="st0" cx="81.36" cy="80.97" r="78.45"/>
<g class="st1">
	<g class="st2">
		<path class="st4" d="M136.14,59.91l-17.44-5.26c-0.3-0.09-7.34-2.12-13.3-1.3l-9.78,1.35l-0.13-1.52l-17.7-1.57l-13.72-1.57
			l-8.74,6.63l-1.65,7.78l-31.96,37.3l8.09,10.12l13.66-17.22c0.05,0.07,0.09,0.13,0.14,0.2c2.16,2.91,10.1,11.2,11.85,9.07
			c4.51-5.46,11.16-12.69,12.67-14.33l1.49,2.48L80.4,69.31l15.82-7.5l-0.1-1.19c4.88-0.82,11.58-1.69,15.9-1.25
			c5.96,0.48,22.02,6.79,22.02,6.79c0.34-0.54,0.62-1.15,0.86-1.15c0.08,0,0.14-0.67,0.21-0.8l-0.01-0.2
			C136.19,61.63,136.13,59.92,136.14,59.91z M65.34,88.77l-10.87,11.51c-1.12-0.66-4.08-3.39-6.7-6.25
			c-0.7-0.77-1.36-1.57-1.94-2.34l13.39-16.88l3.57,5.93c-2.91,5.06-4.14,8.81-4.14,8.81l5.57-6.43l2.24,3.72
			C65.98,88.02,65.34,88.77,65.34,88.77z"/>
	</g>
	<g class="st2">
		<g>
			<path class="st4" d="M141.01,78.56c0,3.02-2.42,5.47-5.4,5.47c-2.98,0-5.4-2.45-5.4-5.47c0-3.02,5.4-11.86,5.4-11.86
				S141.01,75.54,141.01,78.56z"/>
		</g>
	</g>
</g>
<circle class="st0" cx="81.36" cy="81.91" r="78.45"/>
<g class="st1">
	<g class="st2">
		<path class="st3" d="M43.77,43.5c-6.41,0.53-12.22,6.58-8.67,13.19c2.65,4.92,9.94,5.34,13.31,1.04
			c-0.52-0.41-1.05-0.81-1.57-1.22c-3.23,4.88,0.98,9.96,6.08,10.74c6.02,0.93,12.79-2.42,14.45-8.49
			c-0.78,0.18-1.55,0.36-2.33,0.54c4.5,3.04,9.61,6.6,15.33,5.84c4.62-0.61,8.65-3.9,8.84-8.73c0.06-1.43-2.26-1.85-2.36-0.31
			c-0.28,4.11-4.1,6.55-7.99,6.55c-4.5,0-8.57-3.06-12.01-5.61c-0.7-0.52-2.02-0.42-2.33,0.54c-1.16,3.61-4.18,5.7-7.86,6.4
			c-3.57,0.68-10.69-1.04-8.11-6.47c0.42-0.88-0.89-2.12-1.57-1.22c-3.17,4.21-10.6,3.08-10.96-2.8c-0.32-5.26,3.95-7.03,8.03-8.63
			C44.76,44.62,44.55,43.44,43.77,43.5L43.77,43.5z"/>
	</g>
	<g class="st2">
		<path class="st3" d="M43.41,44.02c0.5,0,0.4-0.82-0.08-0.82C42.82,43.2,42.92,44.02,43.41,44.02L43.41,44.02z"/>
	</g>
	<g class="st2">
		<path class="st3" d="M44.07,44.2c2.33-2.39,3.85-4.96,7.2-6.12c2.85-0.99,7.53-1.02,8.06,2.89c0.16,1.19,2.1,1.42,2.24,0.1
			c0.51-4.66-5.05-6.58-8.84-6.06c-4.2,0.58-9.63,3.86-9.95,8.53C42.73,44.25,43.53,44.75,44.07,44.2L44.07,44.2z"/>
	</g>
	<g class="st2">
		<path class="st3" d="M62.1,42.47c2.78-3.17,5.61-5.55,9.61-7.03c1.38-0.51,2.8-0.89,4.24-1.18c0.95-0.19,1.91-0.35,2.87-0.43
			c0.52-0.08,1.05-0.09,1.57-0.06c2.35-0.28,3.65,1.31,3.9,4.76c-1.06,1.01,0.44,2.83,1.5,1.86c1.9-1.73,2.2-4.35,0.6-6.49
			c-1.74-2.32-4.79-2.65-7.49-2.46c-6.72,0.48-15.3,3.5-18.06,10.2C60.56,42.37,61.54,43.11,62.1,42.47L62.1,42.47z"/>
	</g>
	<g class="st2">
		<path class="st3" d="M86.57,40.61c2.65-0.55,5.26-0.81,7.96-0.61c2.42,0.18,2.35,0.14,4.32,2.12c0.98,0.98,3.22,2.64,0.23,3.22
			c-1.18,0.23-0.66,1.91,0.37,1.96c1.77,0.08,3.75,0.19,5.38,0.99c4.69,2.3,1.33,7.22-1.97,8.55c-5.69,2.29-9.75,0.16-14.74-2.5
			c-0.88-0.47-1.95,0.63-1.1,1.37c5.44,4.77,15.46,6.87,20.86,0.61c1.85-2.14,2.43-5.19,0.72-7.61c-2.04-2.89-6.02-3.3-9.27-3.39
			c0.12,0.65,0.24,1.3,0.37,1.96c3.05-0.66,3.66-4.3,1.71-6.5C98,36.93,90.51,38.3,86.14,39.29C85.31,39.48,85.76,40.78,86.57,40.61
			L86.57,40.61z"/>
	</g>
	<g class="st2">
		<path class="st3" d="M44.65,57.67c-1.25,10.86-0.59,22.26-0.34,33.18c0.12,5.43,0.34,10.85,0.65,16.26
			c0.29,5.15,0.17,10.64,1.56,15.63c0.33,1.2,2.57,1.35,2.7-0.05c0.49-5.4-0.49-11.01-0.85-16.41c-0.37-5.58-0.69-11.16-0.95-16.74
			c-0.49-10.5-0.03-21.12-0.79-31.58C46.55,56.93,44.79,56.46,44.65,57.67L44.65,57.67z"/>
	</g>
	<g class="st2">
		<path class="st3" d="M95.96,60.71c-0.34,9.95,1.39,20.09,2.44,29.97c0.55,5.19,1.11,10.37,1.65,15.56
			c0.56,5.34,0.57,11.07,1.82,16.29c0.5,2.09,3.62,2.05,3.62-0.26c0-4.84-1.08-9.78-1.69-14.58c-0.64-5.09-1.24-10.19-1.86-15.28
			c-1.29-10.57-1.95-21.58-4.64-31.9C97.07,59.7,95.98,59.94,95.96,60.71L95.96,60.71z"/>
	</g>
	<g class="st2">
		<path class="st3" d="M45.93,124.55c1.9,3.69,6.04,4.85,9.86,5.6c7.24,1.42,14.85,2.2,22.23,2.27c7.62,0.07,27.12-0.19,28.14-11.3
			c0.13-1.4-1.83-2.39-2.61-0.98c-5,9.06-17.38,9.09-26.58,8.93c-9.76-0.17-21.71-0.28-30.2-5.53
			C46.09,123.11,45.65,124.01,45.93,124.55L45.93,124.55z"/>
	</g>
	<g class="st2">
		<path class="st3" d="M55.2,80.46c1.44,11.63,2.81,23.29,4.9,34.82c0.17,0.95,1.62,0.93,1.51-0.11
			c-1.25-11.63-3.18-23.18-5.07-34.72C56.4,79.62,55.08,79.54,55.2,80.46L55.2,80.46z"/>
	</g>
	<g class="st2">
		<path class="st3" d="M70.37,75.56c0.02,11.18,1.22,22.47,4.18,33.27c0.28,1.01,1.88,0.91,1.65-0.21
			c-2.3-10.96-3.99-21.86-4.46-33.07C71.7,74.66,70.37,74.64,70.37,75.56L70.37,75.56z"/>
	</g>
	<g class="st2">
		<path class="st3" d="M83.51,81.44c-0.6,8.28,0.47,16.8,2.75,24.76c0.32,1.12,2.31,0.89,2.07-0.36
			c-1.55-8.07-2.66-16.06-3.47-24.24C84.8,80.89,83.58,80.59,83.51,81.44L83.51,81.44z"/>
	</g>
	<g class="st2">
		<path class="st3" d="M99.02,71.99c6.71,0.35,13.54-0.66,20.22-1.2c-0.53-0.43-1.06-0.87-1.58-1.3c0.62,7.07,0.64,14.28,0.01,21.35
			c-0.25,2.83-0.12,6.89-1.78,9.27c-2.03,2.9-12.72,5.03-11.39-1.13c0.24-1.13-1.34-1.71-1.94-0.75c-1.56,2.52-0.37,5.34,2.12,6.78
			c3.4,1.97,9.54,0.52,12.52-1.73c3.62-2.73,3.12-9.49,3.4-13.44c0.47-6.77,0.26-13.43-0.4-20.17c-0.08-0.86-0.72-1.38-1.58-1.3
			c-6.61,0.58-13.43,0.74-19.91,2.22C97.88,70.77,98.32,71.95,99.02,71.99L99.02,71.99z"/>
	</g>
	<g class="st2">
		<path class="st3" d="M97.05,67.99c9.9-1.1,19.94-2.6,29.93-2.23c-0.44-0.44-0.88-0.88-1.31-1.32c-0.28,10.17,0.03,20.34-0.3,30.52
			c-0.16,5.04-0.36,9.87-5.21,12.65c-3.79,2.18-10.35,3.99-14.47,2.36c-1.19-0.47-1.46,1.23-0.64,1.81
			c3.82,2.7,9.01,1.02,13.11-0.34c4.31-1.43,7.99-3.93,9.36-8.45c1.75-5.8,1.03-12.88,1.09-18.89c0.07-6.5,0.2-13.06-0.35-19.54
			c-0.05-0.64-0.59-1.37-1.31-1.32c-10.16,0.61-20.3,0.84-30.3,2.99C95.51,66.48,95.98,68.11,97.05,67.99L97.05,67.99z"/>
	</g>
	<g class="st2">
		<path class="st3" d="M59.91,72.82c-0.13,0.07-0.26,0.13-0.38,0.2c-1.17,0.62,0.02,2.26,1.14,1.76c0.06-0.03,0.12-0.05,0.17-0.08
			c0.74-0.33,0.49-1.35-0.15-1.62c-0.05-0.02-0.1-0.04-0.15-0.07c-1.23-0.52-2.07,1.16-0.87,1.77c0.13,0.07,0.27,0.13,0.4,0.2
			C62.15,76.03,61.96,71.74,59.91,72.82L59.91,72.82z"/>
	</g>
	<g class="st2">
		<path class="st3" d="M68.62,71.03c-0.21,0.37-0.34,0.86-0.27,1.29c0.13,0.84,0.79,1.25,1.55,1.44c0.49,0.12,1.13,0.01,1.38-0.49
			c0.12-0.23,0.13-0.51,0.05-0.75c-0.04-0.08-0.08-0.16-0.12-0.24c-0.24-0.27-0.24-0.29,0-0.05c0,0.21,0,0.43,0.01,0.64
			c0.08-0.27,0.12-0.5,0.06-0.77c-0.03-0.12-0.06-0.24-0.1-0.35c-0.03,0.08-0.03,0.08-0.02-0.02C71.2,70.44,69.24,69.93,68.62,71.03
			L68.62,71.03z"/>
	</g>
	<g class="st2">
		<path class="st3" d="M76.07,93.27c0,0.14,0,0.28,0,0.41c0,0.75,0.92,1.37,1.61,1.3c0.83-0.09,1.28-0.68,1.28-1.48
			c0-0.14,0-0.28,0-0.41c0-0.75-0.92-1.37-1.61-1.3C76.52,91.88,76.07,92.47,76.07,93.27L76.07,93.27z"/>
	</g>
	<g class="st2">
		<path class="st3" d="M64.2,94.49c-0.07-0.09-0.06-0.07,0.02,0.04c-0.06-0.37-0.12-0.74-0.18-1.1c-0.11,0.35-0.19,0.7-0.29,1.04
			c-0.18,0.56,0.12,1.1,0.47,1.52c0.46,0.56,1.31,0.9,1.98,0.44c0.22-0.88,0.43-1.75,0.65-2.63c-0.25-0.5-0.82-0.85-1.37-0.88
			c-0.05,0-0.11-0.01-0.16-0.01c0.27,0.15,0.55,0.31,0.82,0.46c-0.27-0.26-0.52-0.47-0.86-0.64c-0.47-0.23-1.08-0.1-1.35,0.36
			C63.65,93.56,63.8,94.12,64.2,94.49L64.2,94.49z"/>
	</g>
	<g class="st2">
		<path class="st3" d="M69.46,115.29c0.24,0.12,0.47,0.25,0.71,0.37c0.47,0.24,1.03,0.26,1.47-0.06c0.38-0.28,0.65-0.88,0.44-1.35
			c-0.08-0.25-0.19-0.49-0.32-0.71c-0.45-0.85-1.62-1.21-2.42-0.6C68.63,113.48,68.58,114.83,69.46,115.29L69.46,115.29z"/>
	</g>
	<g class="st2">
		<path class="st3" d="M80.14,118.53c1.04,1.27,2.74,1.29,3.74,0.32c0.4-0.39,0.73-1.04,0.72-1.61c-0.04-1.3-1.07-2.27-2.37-2.27
			c1.25,0,2.01,0.97,1.38,0.33c-0.87-0.88-2.52-0.87-3.38,0.02c-0.41,0.42-0.74,0.98-0.74,1.58
			C79.48,117.55,79.73,118.03,80.14,118.53L80.14,118.53z"/>
	</g>
	<g class="st2">
		<path class="st3" d="M69.27,124.71c0.31-0.37,0.65-0.74,0.84-1.19c0.41-0.98-0.68-1.83-1.57-1.39c-0.48,0.24-0.88,0.61-1.29,0.94
			c-0.61,0.5-0.42,1.43,0.13,1.88C68.01,125.47,68.77,125.32,69.27,124.71L69.27,124.71z"/>
	</g>
	<g class="st2">
		<path class="st3" d="M91.73,72.22c-0.26,0.16-0.52,0.3-0.7,0.55c-0.26,0.36-0.24,0.74-0.25,1.17c-0.01,0.53,0.65,1.1,1.17,1.02
			c0.75-0.07,1.27-0.38,1.58-0.92C94.15,72.99,92.8,71.58,91.73,72.22L91.73,72.22z"/>
	</g>
	<g class="st2">
		<path class="st3" d="M86.92,73.48c0.88,0,0.74-1.37-0.09-1.37C85.96,72.12,86.1,73.48,86.92,73.48L86.92,73.48z"/>
	</g>
	<g class="st2">
		<path class="st3" d="M52.07,75.74c0.65-0.09,1.19-0.55,1.16-1.25c-0.01-0.33-0.18-0.68-0.41-0.91c-0.27-0.26-0.69-0.37-0.94-0.42
			c-0.84-0.15-1.71,0.38-1.64,1.31C50.31,75.41,51.23,75.86,52.07,75.74L52.07,75.74z"/>
	</g>
	<g class="st2">
		<path class="st3" d="M62.78,85.44c1.44,0,1.07-2.15-0.27-2.15C61.07,83.29,61.44,85.44,62.78,85.44L62.78,85.44z"/>
	</g>
	<g class="st2">
		<path class="st3" d="M95.7,91.52c0.13-0.06,0.25-0.12,0.38-0.19c0.79-0.39,0.41-1.6-0.25-1.88c-0.11-0.05-0.22-0.1-0.33-0.14
			c-0.79-0.34-1.64,0.32-1.57,1.14C94,91.25,94.93,91.9,95.7,91.52L95.7,91.52z"/>
	</g>
</g>
<circle class="st5" cx="81.36" cy="80.97" r="78.45"/>
<g>
	<g>
		<path class="st4" d="M81.94,31.84h-2.41c-15.95,0-28.3,8.26-28.3,19.8v50.49c0,11.55,12.35,23.6,28.3,23.6h2.41
			c15.95,0,29.65-12.05,29.65-23.6V51.64C111.59,40.1,97.89,31.84,81.94,31.84z M81.23,67.42c-4.43,0-8.02-3.63-8.02-8.12
			c0-4.49,8.26-17.62,8.26-17.62s7.78,13.13,7.78,17.62C89.25,63.79,85.66,67.42,81.23,67.42z"/>
	</g>
	<g>
		<path class="st4" d="M116.3,82.06H46.43c-3.63,0-6.57,4.37-6.76,8.73h7.25v39.3h2.14h2.33h66.66v-2.73v-2.35V90.79h5
			C122.87,86.43,119.93,82.06,116.3,82.06z M111.59,125.73H51.23V90.79h60.35V125.73z"/>
	</g>
</g>
</svg>
