<?xml version="1.0" encoding="utf-8"?>
<!-- Generator: Adobe Illustrator 25.2.1, SVG Export Plug-In . SVG Version: 6.00 Build 0)  -->
<svg version="1.1" id="Layer_1" xmlns="http://www.w3.org/2000/svg" xmlns:xlink="http://www.w3.org/1999/xlink" x="0px" y="0px"
	 viewBox="0 0 162.73 161.93" style="enable-background:new 0 0 162.73 161.93;" xml:space="preserve">
<style type="text/css">
	.st0{fill:#CDE2EB;stroke:#0081A6;stroke-width:4;stroke-miterlimit:10;}
	.st1{fill:#0081A6;}
</style>
<circle class="st0" cx="81.6" cy="80.76" r="78.45"/>
<g>
	<path class="st1" d="M115.69,124.59c-22.71,0-45.43,0-68.14,0c-0.33-0.47-0.91-0.93-0.94-1.41c-0.11-1.96-0.09-3.94-0.03-5.9
		c0.03-0.93,0.63-1.4,1.59-1.43c0.42-0.02,0.83,0,1.25,0c0-13.7,0-27.27,0-40.91c-1.7,0-3.35,0.08-4.99-0.03
		c-0.84-0.06-1.8-0.27-2.46-0.75c-1.73-1.27-1.67-3.56,0.05-5.09c2.26-2.01,4.55-3.98,6.85-5.95c0.42-0.36,0.62-0.73,0.61-1.3
		c-0.02-5.08-0.01-10.16-0.02-15.24c0-0.27-0.03-0.55-0.05-0.88c-0.41,0-0.75,0.01-1.09,0c-1.19-0.02-1.76-0.53-1.78-1.7
		c-0.03-1.8-0.03-3.6,0-5.39c0.02-1.09,0.59-1.65,1.66-1.65c5.71-0.01,11.41-0.01,17.12,0c1.05,0,1.64,0.51,1.67,1.54
		c0.05,1.88,0.05,3.77,0,5.65c-0.03,1.03-0.61,1.52-1.66,1.55c-0.39,0.01-0.78,0-1.17,0c0,1.34,0,2.56,0,3.9
		c0.31-0.27,0.53-0.45,0.73-0.64c3.55-3.22,7.09-6.46,10.65-9.66c3.43-3.08,8.57-3.1,12.02-0.04c11.11,9.84,22.2,19.68,33.3,29.53
		c0.34,0.3,0.67,0.62,0.95,0.98c1.44,1.81,0.45,4.69-1.83,5.01c-1.71,0.24-3.47,0.13-5.2,0.17c-0.33,0.01-0.66,0-0.97,0
		c0,13.7,0,27.27,0,40.91c0.31,0,0.56,0,0.81,0c1.58,0.01,2.05,0.47,2.05,2.03c0,1.54-0.03,3.08,0,4.62
		C116.72,123.39,116.48,124.11,115.69,124.59z M81.56,72.02c0,2,0,3.89,0,5.83c-0.37,0-0.69,0-1,0c-5.79,0-11.58,0-17.37,0
		c-1.54,0-2,0.45-2.01,1.98c-0.01,2.51,0,5.02,0,7.53c0,1.77,0.39,2.16,2.17,2.16c8.1,0,16.2,0,24.31,0c1.14,0,1.29,0.14,1.29,1.27
		c0,2.4-0.01,4.79,0.01,7.19c0.01,1.24,0.54,1.77,1.78,1.78c2.71,0.01,5.42,0.01,8.13,0c1.19-0.01,1.76-0.56,1.76-1.72
		c0.01-3.42,0.08-6.85-0.02-10.27c-0.11-3.58-1.76-6.37-4.76-8.33c-1.69-1.1-3.58-1.59-5.59-1.58c-1.87,0.01-3.75,0-5.63,0
		c0-1.99,0-3.89,0-5.84c1.45,0,2.85,0.03,4.24-0.01c0.96-0.03,1.54-0.67,1.52-1.51c-0.03-0.82-0.6-1.38-1.53-1.39
		c-3.85-0.01-7.7,0-11.55,0.01c-0.67,0-1.14,0.33-1.38,0.96c-0.37,0.96,0.34,1.91,1.51,1.94C78.76,72.05,80.13,72.02,81.56,72.02z
		 M94.84,115.57c2.24-0.11,4-1.12,4.97-3.23c0.95-2.06,0.74-4.08-0.72-5.84c-1-1.2-2.14-2.28-3.27-3.36
		c-0.66-0.63-1.41-0.63-2.07,0.01c-1.13,1.08-2.28,2.16-3.28,3.36c-1.46,1.75-1.68,3.78-0.72,5.84
		C90.72,114.44,92.47,115.47,94.84,115.57z"/>
	<path class="st1" d="M64.13,86.6c0-2,0-3.85,0-5.75c0.2-0.03,0.39-0.08,0.58-0.08c8.5,0,17-0.02,25.49,0
		c3.58,0.01,6.29,2.1,7.24,5.51c0.17,0.6,0.25,1.23,0.26,1.85c0.03,2.74,0.01,5.47,0.01,8.21c0,0.14-0.03,0.27-0.04,0.45
		c-1.91,0-3.78,0-5.75,0c-0.01-0.3-0.04-0.6-0.04-0.9c0-1.74,0-3.48,0-5.22c-0.01-2.64-1.44-4.08-4.07-4.08c-7.53,0-15.06,0-22.58,0
		C64.87,86.6,64.54,86.6,64.13,86.6z"/>
	<path class="st1" d="M94.8,106.22c0.69,0.69,1.34,1.29,1.92,1.95c1.01,1.15,0.93,2.78-0.13,3.76c-1.04,0.95-2.63,0.94-3.64-0.03
		c-1.07-1.03-1.12-2.61-0.08-3.76C93.45,107.49,94.11,106.9,94.8,106.22z"/>
</g>
</svg>
